<svg width="143" height="59" viewBox="0 0 143 59" fill="none" xmlns="http://www.w3.org/2000/svg">
<path d="M0 7.89795V23.611L9.39604 16.3874L0 7.89795Z" fill="white"/>
<path d="M0 50.1382L9.39604 41.6507L0 34.4326V50.1382Z" fill="white"/>
<path d="M17.6191 26.8654L41.2598 7.89746H27.4806L0 29.0225L17.6191 26.8654Z" fill="white"/>
<path d="M0 29.0225L27.4806 50.1395H41.2598L17.6191 31.1679L0 29.0225Z" fill="white"/>
<path d="M48.6411 9.71924H53.2872V47.9812H48.6411V9.71924ZM68.3187 9.71924H74.058L57.496 27.6477L74.8779 47.9812H69.1386L51.8661 27.757L68.3187 9.71924Z" fill="white"/>
<path d="M83.647 22.8381V47.9816H79.2742V22.8381H83.647ZM91.2447 27.6481C90.6617 27.2108 90.1333 26.9011 89.6596 26.7189C89.1858 26.5003 88.5846 26.3909 87.8558 26.3909C86.7626 26.3909 85.9062 26.6643 85.2868 27.2108C84.6673 27.7574 84.23 28.5045 83.9749 29.4519C83.7563 30.3993 83.647 31.4743 83.647 32.6768H81.6792C81.6792 30.6726 82.0254 28.9053 82.7178 27.3748C83.4465 25.8079 84.3758 24.569 85.5054 23.658C86.635 22.747 87.7829 22.2915 88.949 22.2915C89.86 22.2915 90.6981 22.419 91.4633 22.6741C92.265 22.8927 92.9938 23.3482 93.6497 24.0406L91.2447 27.6481Z" fill="white"/>
<path d="M98.01 12.4526C98.01 11.6144 98.3016 10.9039 98.8846 10.3208C99.5041 9.73781 100.215 9.44629 101.016 9.44629C101.855 9.44629 102.565 9.73781 103.148 10.3208C103.731 10.9039 104.023 11.6144 104.023 12.4526C104.023 13.2542 103.731 13.9648 103.148 14.5843C102.565 15.1673 101.855 15.4589 101.016 15.4589C100.215 15.4589 99.5041 15.1673 98.8846 14.5843C98.3016 13.9648 98.01 13.2542 98.01 12.4526ZM98.8299 22.838H103.203V47.9815H98.8299V22.838Z" fill="white"/>
<path d="M113.247 40.2746C113.758 41.0398 114.341 41.7504 114.997 42.4063C115.652 43.0622 116.4 43.5906 117.238 43.9915C118.112 44.3559 119.06 44.5381 120.08 44.5381C121.319 44.5381 122.285 44.2648 122.977 43.7182C123.706 43.1351 124.07 42.3517 124.07 41.3678C124.07 40.4932 123.779 39.7644 123.196 39.1814C122.649 38.5619 121.938 38.0517 121.064 37.6509C120.189 37.2136 119.26 36.8128 118.276 36.4484C117.183 36.0111 116.072 35.5009 114.942 34.9179C113.849 34.2984 112.919 33.515 112.154 32.5675C111.425 31.5836 111.061 30.3629 111.061 28.9053C111.061 27.4113 111.444 26.1723 112.209 25.1884C113.011 24.2046 114.031 23.4758 115.27 23.002C116.545 22.5283 117.857 22.2915 119.205 22.2915C120.554 22.2915 121.811 22.5101 122.977 22.9474C124.179 23.3847 125.236 23.9677 126.147 24.6965C127.058 25.4253 127.769 26.2634 128.279 27.2108L124.781 29.4519C124.088 28.5045 123.214 27.721 122.157 27.1015C121.137 26.482 119.971 26.1723 118.659 26.1723C117.748 26.1723 116.964 26.3727 116.308 26.7736C115.652 27.1744 115.325 27.7939 115.325 28.632C115.325 29.2879 115.58 29.871 116.09 30.3811C116.6 30.8913 117.256 31.3468 118.058 31.7476C118.859 32.1485 119.697 32.5311 120.572 32.8955C122.029 33.4785 123.36 34.1162 124.562 34.8086C125.765 35.4645 126.712 36.2662 127.404 37.2136C128.133 38.1611 128.498 39.3818 128.498 40.8758C128.498 43.0622 127.696 44.8842 126.093 46.3418C124.526 47.7994 122.449 48.5282 119.861 48.5282C118.185 48.5282 116.673 48.2367 115.325 47.6537C113.976 47.0342 112.828 46.2507 111.881 45.3033C110.97 44.3559 110.278 43.3902 109.804 42.4063L113.247 40.2746Z" fill="white"/>
<path d="M130.428 22.8379H143V26.9374H130.428V22.8379ZM134.528 14.0923H138.9V47.9814H134.528V14.0923Z" fill="white"/>
</svg>
